<mxfile host="app.diagrams.net" agent="Mozilla/5.0 (Macintosh; Intel Mac OS X 10_15_7) AppleWebKit/537.36 (KHTML, like Gecko) Chrome/131.0.0.0 Safari/537.36" version="25.0.3">
  <diagram name="Страница — 1" id="7tew6kczpahPPCefrel-">
    <mxGraphModel dx="767" dy="542" grid="0" gridSize="10" guides="1" tooltips="1" connect="1" arrows="1" fold="1" page="0" pageScale="1" pageWidth="827" pageHeight="1169" math="0" shadow="0">
      <root>
        <mxCell id="0" />
        <mxCell id="1" parent="0" />
        <mxCell id="N0TpLS0-rn4Ospf4XhaW-2" style="edgeStyle=none;curved=1;rounded=0;orthogonalLoop=1;jettySize=auto;html=1;fontSize=12;startSize=8;endSize=8;entryX=0.5;entryY=0;entryDx=0;entryDy=0;" edge="1" parent="1" source="N0TpLS0-rn4Ospf4XhaW-1" target="N0TpLS0-rn4Ospf4XhaW-3">
          <mxGeometry relative="1" as="geometry">
            <mxPoint x="112" y="303.79998779296875" as="targetPoint" />
          </mxGeometry>
        </mxCell>
        <mxCell id="N0TpLS0-rn4Ospf4XhaW-1" value="Root Certificate" style="rounded=1;whiteSpace=wrap;html=1;" vertex="1" parent="1">
          <mxGeometry x="25" y="40" width="174" height="113" as="geometry" />
        </mxCell>
        <mxCell id="N0TpLS0-rn4Ospf4XhaW-5" style="edgeStyle=none;curved=1;rounded=0;orthogonalLoop=1;jettySize=auto;html=1;entryX=0.5;entryY=0;entryDx=0;entryDy=0;fontSize=12;startSize=8;endSize=8;" edge="1" parent="1" source="N0TpLS0-rn4Ospf4XhaW-3" target="N0TpLS0-rn4Ospf4XhaW-4">
          <mxGeometry relative="1" as="geometry" />
        </mxCell>
        <mxCell id="N0TpLS0-rn4Ospf4XhaW-3" value="Intermediate Certificate" style="rounded=1;whiteSpace=wrap;html=1;" vertex="1" parent="1">
          <mxGeometry x="25" y="241" width="174" height="113" as="geometry" />
        </mxCell>
        <mxCell id="N0TpLS0-rn4Ospf4XhaW-4" value="SSL Certificate" style="rounded=1;whiteSpace=wrap;html=1;" vertex="1" parent="1">
          <mxGeometry x="25" y="442" width="174" height="113" as="geometry" />
        </mxCell>
      </root>
    </mxGraphModel>
  </diagram>
</mxfile>
